<?xml version="1.0" encoding="UTF-8"?>
<svg version="1.1" xmlns="http://www.w3.org/2000/svg" width="51" height="50">
<path d="M0 0 C2.5234375 -0.13671875 2.5234375 -0.13671875 5.375 0.3125 C9.29567158 0.90114077 12.13333782 0.7787028 16 0 C17.625 1.4375 17.625 1.4375 19 3 C19.99 3 20.98 3 22 3 C22.061875 3.556875 22.12375 4.11375 22.1875 4.6875 C22.89181723 7.22538076 22.89181723 7.22538076 25.3125 9.3125 C30.73489799 14.73489799 32.26396164 18.3191586 32.5 25.9375 C32.25526848 33.1570798 31.12159615 37.7219982 26.12890625 42.96484375 C20.35520145 48.30197352 16.03736513 50.28274812 8.0625 50.1875 C6.87785156 50.18105469 5.69320313 50.17460938 4.47265625 50.16796875 C1.23492713 50.01136318 -1.81922361 49.6070184 -5 49 C-5 48.34 -5 47.68 -5 47 C-7.31 46.67 -9.62 46.34 -12 46 C-12.17015625 45.38511719 -12.3403125 44.77023438 -12.515625 44.13671875 C-13.9672897 39.02672252 -13.9672897 39.02672252 -17.1875 34.9375 C-17.785625 34.628125 -18.38375 34.31875 -19 34 C-18.835 33.484375 -18.67 32.96875 -18.5 32.4375 C-17.49676285 27.54671888 -17.82981438 22.82701566 -19 18 C-18.04673828 17.90332031 -18.04673828 17.90332031 -17.07421875 17.8046875 C-16.38972656 17.53914063 -15.70523437 17.27359375 -15 17 C-14.1888041 14.76604215 -14.1888041 14.76604215 -13.8125 12.125 C-13.11328125 9.375 -13.11328125 9.375 -12 7 C-9.70507807 5.69107642 -7.7466134 5.17021246 -5.15625 4.6953125 C-2.81172846 4.18059218 -2.81172846 4.18059218 -1.5546875 1.91015625 C-1.04164062 1.27980469 -0.52859375 0.64945312 0 0 Z " fill="#71CE53" transform="translate(19,0)"/>
<path d="M0 0 C2.5234375 -0.13671875 2.5234375 -0.13671875 5.375 0.3125 C9.24967892 0.89423554 12.1853519 0.96406561 16 0 C16.66 1.65 17.32 3.3 18 5 C17.18208984 5.62044189 17.18208984 5.62044189 16.34765625 6.25341797 C13.89344442 8.12082145 11.44668079 9.99774192 9 11.875 C8.14148438 12.52597656 7.28296875 13.17695313 6.3984375 13.84765625 C5.58632813 14.47285156 4.77421875 15.09804687 3.9375 15.7421875 C2.80634766 16.60626221 2.80634766 16.60626221 1.65234375 17.48779297 C1.10707031 17.98682129 0.56179687 18.48584961 0 19 C0 19.66 0 20.32 0 21 C1.78965547 22.36277086 1.78965547 22.36277086 4 23.625 C4.7425 24.07101563 5.485 24.51703125 6.25 24.9765625 C6.8275 25.31429688 7.405 25.65203125 8 26 C6.3582214 30.5546116 4.0743662 34.59568282 1.625 38.75 C1.04492188 39.77673828 1.04492188 39.77673828 0.453125 40.82421875 C-2.49002786 45.81177644 -2.49002786 45.81177644 -4.97119141 46.72753906 C-7.50262008 47.06749988 -9.5373315 46.61566713 -12 46 C-12.17015625 45.38511719 -12.3403125 44.77023438 -12.515625 44.13671875 C-13.9672897 39.02672252 -13.9672897 39.02672252 -17.1875 34.9375 C-17.785625 34.628125 -18.38375 34.31875 -19 34 C-18.835 33.484375 -18.67 32.96875 -18.5 32.4375 C-17.49676285 27.54671888 -17.82981438 22.82701566 -19 18 C-18.04673828 17.90332031 -18.04673828 17.90332031 -17.07421875 17.8046875 C-16.38972656 17.53914063 -15.70523437 17.27359375 -15 17 C-14.1888041 14.76604215 -14.1888041 14.76604215 -13.8125 12.125 C-13.11328125 9.375 -13.11328125 9.375 -12 7 C-9.70507807 5.69107642 -7.7466134 5.17021246 -5.15625 4.6953125 C-2.81172846 4.18059218 -2.81172846 4.18059218 -1.5546875 1.91015625 C-1.04164062 1.27980469 -0.52859375 0.64945312 0 0 Z " fill="#FE6F2A" transform="translate(19,0)"/>
<path d="M0 0 C0.66 0.66 1.32 1.32 2 2 C1.67 2.66 1.34 3.32 1 4 C0.34 4 -0.32 4 -1 4 C-1.2475 4.680625 -1.495 5.36125 -1.75 6.0625 C-2.7565008 8.42777689 -3.8259263 10.48552402 -5.125 12.6875 C-7.16419941 15.65569437 -7.16419941 15.65569437 -7 18 C-4.03 19.65 -1.06 21.3 2 23 C-0.0459615 27.091923 -1.35700985 28.334783 -4.875 31.0625 C-9.85013076 35.00580047 -14.52450646 39.16068579 -19.11474609 43.54516602 C-22.78894443 47 -22.78894443 47 -25 47 C-23.65528068 44.23881214 -22.2009477 41.59179122 -20.6171875 38.9609375 C-20.17246094 38.21585938 -19.72773438 37.47078125 -19.26953125 36.703125 C-18.33433585 35.14184641 -17.39680685 33.58196343 -16.45703125 32.0234375 C-15.79380859 30.9096875 -15.79380859 30.9096875 -15.1171875 29.7734375 C-14.71097168 29.09716309 -14.30475586 28.42088867 -13.88623047 27.72412109 C-12.84761327 26.02663115 -12.84761327 26.02663115 -13 24 C-15.97 22.35 -18.94 20.7 -22 19 C-18.63733482 14.23769145 -14.53811819 11.18679572 -9.875 7.8125 C-8.4339243 6.75783663 -6.99377713 5.70190302 -5.5546875 4.64453125 C-4.92030762 4.18409424 -4.28592773 3.72365723 -3.63232422 3.24926758 C-1.86789404 1.95574279 -1.86789404 1.95574279 0 0 Z " fill="#FBFAF7" transform="translate(39,2)"/>
<path d="M0 0 C0.845625 0.268125 1.69125 0.53625 2.5625 0.8125 C3.5625 3.8125 3.5625 3.8125 2.72973633 5.78955078 C1.29058005 8.18051328 -0.15221813 10.56704006 -1.625 12.9375 C-2.3684668 14.19240234 -2.3684668 14.19240234 -3.12695312 15.47265625 C-3.61486328 16.26800781 -4.10277344 17.06335938 -4.60546875 17.8828125 C-5.05172607 18.61258301 -5.4979834 19.34235352 -5.95776367 20.09423828 C-7.7361415 22.15928087 -8.76089699 22.50785665 -11.4375 22.8125 C-14.1875 22.375 -14.1875 22.375 -16.4375 21.8125 C-17.77083333 17.8125 -19.10416667 13.8125 -20.4375 9.8125 C-19.79683594 9.50957031 -19.15617187 9.20664062 -18.49609375 8.89453125 C-14.27091473 6.84805855 -10.35910589 4.88303551 -6.6875 1.9375 C-3.4375 -0.1875 -3.4375 -0.1875 0 0 Z " fill="#EE5209" transform="translate(23.4375,24.1875)"/>
<path d="M0 0 C5.51938086 1.09919873 7.96791423 4.66107792 11.3125 9 C14.17976485 14.17028883 13.30929605 20.28661467 13 26 C8.54899341 23.4963088 4.18720272 20.89499743 -0.1328125 18.171875 C-2.40207391 16.74765236 -4.69635742 15.36778778 -7 14 C-5.53967505 8.68972746 -3.01679014 4.53669968 0 0 Z " fill="#57B33F" transform="translate(38,6)"/>
<path d="M0 0 C4.18426454 0.94303124 8.2636468 2.1992386 12.33984375 3.52734375 C10.2875069 5.77514125 9.33317114 6.52956795 6.33984375 7.52734375 C4.00808461 7.62263198 1.67354401 7.65720563 -0.66015625 7.65234375 C-1.89765625 7.65492187 -3.13515625 7.6575 -4.41015625 7.66015625 C-7.66015625 7.52734375 -7.66015625 7.52734375 -10.66015625 6.52734375 C-8.0982462 0.81231363 -6.60431741 -1.0945703 0 0 Z " fill="#8EEA6C" transform="translate(27.66015625,42.47265625)"/>
</svg>
